<svg className="icon icon-facebook" xmlns="http://www.w3.org/2000/svg" viewBox="0 0 35 35"><g fill="none" fill-rule="evenodd"><rect width="35" height="35" fill="#1877F2" rx="17.5"></rect><path fill="#FFF" fill-rule="nonzero" d="M13.28 18.62h1.94v7.3c0 .14.12.26.28.26h3.28c.16 0 .28-.11.28-.26v-7.27h2.23c.14 0 .26-.1.28-.23l.34-2.69a.24.24 0 00-.07-.2.3.3 0 00-.21-.09h-2.56v-1.68c0-.51.3-.77.88-.77h1.68c.15 0 .28-.12.28-.26v-2.47c0-.14-.13-.26-.28-.26h-2.41c-.4 0-1.8.07-2.9 1a2.64 2.64 0 00-1 2.47v1.97h-2.04c-.15 0-.28.12-.28.26v2.66c0 .14.13.26.28.26z"></path></g></svg>